<?xml version="1.0" encoding="UTF-8" standalone="no"?>
<svg width="30px" height="22px" viewBox="0 0 30 22" version="1.1" xmlns="http://www.w3.org/2000/svg" xmlns:xlink="http://www.w3.org/1999/xlink">
    <!-- Generator: Sketch 47.1 (45422) - http://www.bohemiancoding.com/sketch -->
    <title>envelope - simple-line-icons</title>
    <desc>Created with Sketch.</desc>
    <defs></defs>
    <g id="Page-1" stroke="none" stroke-width="1" fill="none" fill-rule="evenodd">
        <g id="Artboard" transform="translate(-364.000000, -3062.000000)" fill="#FFFFFF">
            <path d="M393.970703,3064.67188 C393.990234,3064.71094 394,3064.75 394,3064.78906 L394,3079.90625 C394,3080.6875 393.804689,3081.42968 393.414062,3082.13281 C393.023436,3082.83594 392.437504,3083.1875 391.65625,3083.1875 L367.28125,3083.1875 C366.499996,3083.1875 365.757816,3082.83594 365.054688,3082.13281 C364.351559,3081.42968 364,3080.6875 364,3079.90625 L364,3064.78906 C364,3064.75 364.009766,3064.71094 364.029297,3064.67188 C363.990234,3064.53516 363.990234,3064.40332 364.029297,3064.27637 C364.06836,3064.14941 364.136718,3064.02734 364.234375,3063.91016 C364.253906,3063.89062 364.273437,3063.86621 364.292969,3063.83691 C364.3125,3063.80762 364.341797,3063.7832 364.380859,3063.76367 C364.67383,3063.37304 365.088865,3063.0752 365.625977,3062.87012 C366.163089,3062.66504 366.714841,3062.5625 367.28125,3062.5625 L391.65625,3062.5625 C392.281253,3062.5625 392.784178,3062.69433 393.165039,3062.95801 C393.5459,3063.22168 393.794921,3063.61718 393.912109,3064.14453 C393.951172,3064.22266 393.975586,3064.30566 393.985352,3064.39355 C393.995117,3064.48145 393.990234,3064.57422 393.970703,3064.67188 Z M366.841797,3064.4375 C366.685546,3064.4375 366.529298,3064.44727 366.373047,3064.4668 L379,3074.54492 L391.65625,3064.4375 L366.841797,3064.4375 Z M391.65625,3081.3125 C391.910158,3081.3125 392.051758,3081.1416 392.081055,3080.7998 C392.110352,3080.45801 392.125,3080.16016 392.125,3079.90625 L392.125,3066.48828 L379.615234,3076.47852 C379.517578,3076.55664 379.419922,3076.61523 379.322266,3076.6543 C379.224609,3076.69336 379.117188,3076.71289 379,3076.71289 C378.882812,3076.71289 378.775391,3076.69336 378.677734,3076.6543 C378.580078,3076.61523 378.482422,3076.55664 378.384766,3076.47852 L365.875,3066.48828 L365.875,3079.90625 C365.875,3080.16016 366.045897,3080.45801 366.387695,3080.7998 C366.729494,3081.1416 367.027342,3081.3125 367.28125,3081.3125 L391.65625,3081.3125 Z" id="envelope---simple-line-icons"></path>
        </g>
    </g>
</svg>