<?xml version="1.0" encoding="UTF-8" standalone="no"?>
<svg width="70px" height="58px" viewBox="0 0 70 58" version="1.1" xmlns="http://www.w3.org/2000/svg" xmlns:xlink="http://www.w3.org/1999/xlink">
    <!-- Generator: Sketch 47.1 (45422) - http://www.bohemiancoding.com/sketch -->
    <title>camera - simple-line-icons</title>
    <desc>Created with Sketch.</desc>
    <defs></defs>
    <g id="Page-1" stroke="none" stroke-width="1" fill="none" fill-rule="evenodd">
        <g id="Artboard" transform="translate(-716.000000, -1459.000000)" fill="#FFFFFF">
            <path d="M779.4375,1468.6875 C781.625011,1468.6875 783.26562,1469.5078 784.359375,1471.14844 C785.45313,1472.78907 786,1474.15624 786,1475.25 L786,1510.31836 C786,1512.05014 785.282234,1513.56542 783.84668,1514.86426 C782.411126,1516.16309 780.986986,1516.8125 779.574219,1516.8125 L722.083984,1516.8125 C720.671217,1516.8125 719.304043,1516.17449 717.982422,1514.89844 C716.660801,1513.62239 716,1512.07293 716,1510.25 L716,1475.18164 C716,1473.0397 716.820304,1471.42188 718.460938,1470.32812 C720.101571,1469.23437 721.468745,1468.6875 722.5625,1468.6875 L732.611328,1468.6875 L737.875,1459.9375 L764.125,1459.9375 L769.388672,1468.6875 L779.4375,1468.6875 Z M781.625,1510.31836 L781.625,1475.25 C781.625,1475.15885 781.454103,1474.77149 781.112305,1474.08789 C780.770506,1473.40429 780.212243,1473.0625 779.4375,1473.0625 L766.927734,1473.0625 L765.697266,1470.94336 L761.800781,1464.3125 L740.335938,1464.3125 L735.072266,1473.0625 L722.5625,1473.0625 C722.380207,1473.0625 721.970055,1473.24479 721.332031,1473.60938 C720.694007,1473.97396 720.375,1474.49804 720.375,1475.18164 L720.375,1510.25 C720.375,1510.84245 720.602862,1511.35514 721.058594,1511.78809 C721.514325,1512.22103 721.878905,1512.4375 722.152344,1512.4375 L779.574219,1512.4375 C779.893231,1512.39193 780.314776,1512.12989 780.838867,1511.65137 C781.362958,1511.17285 781.625,1510.72852 781.625,1510.31836 Z M751,1475.25 C753.096365,1475.25 755.078767,1475.64876 756.947266,1476.44629 C758.815765,1477.24382 760.44498,1478.33756 761.834961,1479.72754 C763.224942,1481.11752 764.318681,1482.74674 765.116211,1484.61523 C765.913741,1486.48373 766.3125,1488.46614 766.3125,1490.5625 C766.3125,1492.65886 765.913741,1494.64127 765.116211,1496.50977 C764.318681,1498.37826 763.224942,1500.00748 761.834961,1501.39746 C760.44498,1502.78744 758.815765,1503.88118 756.947266,1504.67871 C755.078767,1505.47624 753.096365,1505.875 751,1505.875 C748.903635,1505.875 746.921233,1505.47624 745.052734,1504.67871 C743.184235,1503.88118 741.55502,1502.78744 740.165039,1501.39746 C738.775058,1500.00748 737.681319,1498.37826 736.883789,1496.50977 C736.086259,1494.64127 735.6875,1492.65886 735.6875,1490.5625 C735.6875,1488.46614 736.086259,1486.48373 736.883789,1484.61523 C737.681319,1482.74674 738.775058,1481.11752 740.165039,1479.72754 C741.55502,1478.33756 743.184235,1477.24382 745.052734,1476.44629 C746.921233,1475.64876 748.903635,1475.25 751,1475.25 Z M751,1501.5 C754.007828,1501.5 756.582672,1500.42905 758.724609,1498.28711 C760.866547,1496.14517 761.9375,1493.57033 761.9375,1490.5625 C761.9375,1487.55467 760.866547,1484.97983 758.724609,1482.83789 C756.582672,1480.69595 754.007828,1479.625 751,1479.625 C747.992172,1479.625 745.417328,1480.69595 743.275391,1482.83789 C741.133453,1484.97983 740.0625,1487.55467 740.0625,1490.5625 C740.0625,1493.57033 741.133453,1496.14517 743.275391,1498.28711 C745.417328,1500.42905 747.992172,1501.5 751,1501.5 Z" id="camera---simple-line-icons"></path>
        </g>
    </g>
</svg>