<?xml version="1.0" encoding="UTF-8" standalone="no"?>
<svg width="50px" height="71px" viewBox="0 0 50 71" version="1.1" xmlns="http://www.w3.org/2000/svg" xmlns:xlink="http://www.w3.org/1999/xlink">
    <!-- Generator: Sketch 47.1 (45422) - http://www.bohemiancoding.com/sketch -->
    <title>bulb - simple-line-icons</title>
    <desc>Created with Sketch.</desc>
    <defs></defs>
    <g id="Page-1" stroke="none" stroke-width="1" fill="none" fill-rule="evenodd">
        <g id="Artboard" transform="translate(-424.000000, -1453.000000)" fill="#FFFFFF">
            <path d="M449,1453.375 C452.372413,1453.375 455.528306,1454.02441 458.467773,1455.32324 C461.407241,1456.62208 463.959299,1458.37662 466.124023,1460.58691 C468.288748,1462.79721 469.997715,1465.39484 471.250977,1468.37988 C472.504238,1471.36492 473.130859,1474.5436 473.130859,1477.91602 C473.130859,1482.7012 472.21941,1486.34699 470.396484,1488.85352 C468.573559,1491.36004 466.682301,1493.47916 464.722656,1495.21094 C463.264316,1496.48699 462.102218,1497.59212 461.236328,1498.52637 C460.370438,1499.46062 459.9375,1500.58854 459.9375,1501.91016 L459.9375,1505.60156 C459.9375,1505.64714 459.926107,1505.69271 459.90332,1505.73828 C459.880534,1505.78385 459.869141,1505.82943 459.869141,1505.875 L459.9375,1505.875 L459.9375,1512.23242 C459.9375,1515.55926 458.934906,1518.24804 456.929688,1520.29883 C454.924469,1522.34962 452.304053,1523.375 449.068359,1523.375 C445.74152,1523.375 443.075531,1522.34962 441.070312,1520.29883 C439.065094,1518.24804 438.0625,1515.55926 438.0625,1512.23242 L438.0625,1505.875 L438.130859,1505.875 C438.130859,1505.82943 438.119466,1505.78385 438.09668,1505.73828 C438.073893,1505.69271 438.0625,1505.64714 438.0625,1505.60156 L438.0625,1501.91016 C438.0625,1501.04427 437.675134,1500.21257 436.900391,1499.41504 C436.125647,1498.61751 435.100267,1497.64909 433.824219,1496.50977 C431.864574,1494.73241 429.882171,1492.46518 427.876953,1489.70801 C425.871735,1486.95083 424.869141,1483.02021 424.869141,1477.91602 C424.869141,1474.5436 425.495762,1471.36492 426.749023,1468.37988 C428.002285,1465.39484 429.711252,1462.79721 431.875977,1460.58691 C434.040701,1458.37662 436.592759,1456.62208 439.532227,1455.32324 C442.471694,1454.02441 445.627587,1453.375 449,1453.375 Z M448.931641,1519 C451.028005,1519 452.657221,1518.40756 453.819336,1517.22266 C454.981451,1516.03775 455.5625,1514.37436 455.5625,1512.23242 L455.5625,1509.22461 C454.787757,1509.49805 453.853521,1509.7373 452.759766,1509.94238 C451.66601,1510.14746 450.412767,1510.25 449,1510.25 C447.541659,1510.25 446.277024,1510.15886 445.206055,1509.97656 C444.135086,1509.79427 443.212243,1509.56641 442.4375,1509.29297 L442.4375,1512.23242 C442.4375,1514.32879 443.007156,1515.98079 444.146484,1517.18848 C445.285813,1518.39616 446.880849,1519 448.931641,1519 Z M461.851562,1491.92969 C463.674488,1490.33463 465.280918,1488.54591 466.670898,1486.56348 C468.060879,1484.58104 468.755859,1481.69859 468.755859,1477.91602 C468.755859,1475.13605 468.254562,1472.52703 467.251953,1470.08887 C466.249344,1467.6507 464.859384,1465.5088 463.082031,1463.66309 C461.304679,1461.81737 459.208345,1460.37045 456.792969,1459.32227 C454.377592,1458.27408 451.779962,1457.75 449,1457.75 C446.220038,1457.75 443.622408,1458.27408 441.207031,1459.32227 C438.791655,1460.37045 436.695321,1461.81737 434.917969,1463.66309 C433.140616,1465.5088 431.750656,1467.6507 430.748047,1470.08887 C429.745438,1472.52703 429.244141,1475.13605 429.244141,1477.91602 C429.244141,1482.06317 430.030266,1485.24185 431.602539,1487.45215 C433.174813,1489.66245 434.895173,1491.61067 436.763672,1493.29688 C438.130866,1494.52735 439.418288,1495.80338 440.625977,1497.125 C441.833665,1498.44662 442.4375,1500.04166 442.4375,1501.91016 L442.4375,1504.71289 C442.893231,1504.98633 443.622391,1505.25976 444.625,1505.5332 C445.627609,1505.80664 447.063142,1505.94336 448.931641,1505.94336 C450.754566,1505.94336 452.178706,1505.79525 453.204102,1505.49902 C454.229497,1505.2028 455.015622,1504.91797 455.5625,1504.64453 L455.5625,1501.91016 C455.5625,1499.54035 456.234694,1497.60352 457.579102,1496.09961 C458.923509,1494.5957 460.347649,1493.20574 461.851562,1491.92969 Z" id="bulb---simple-line-icons"></path>
        </g>
    </g>
</svg>