<?xml version="1.0" encoding="UTF-8" standalone="no"?>
<svg width="70px" height="61px" viewBox="0 0 70 61" version="1.1" xmlns="http://www.w3.org/2000/svg" xmlns:xlink="http://www.w3.org/1999/xlink">
    <!-- Generator: Sketch 47.1 (45422) - http://www.bohemiancoding.com/sketch -->
    <title>Shuffle - simple-line-icons</title>
    <desc>Created with Sketch.</desc>
    <defs></defs>
    <g id="Page-1" stroke="none" stroke-width="1" fill="none" fill-rule="evenodd">
        <g id="Artboard" transform="translate(-112.000000, -1463.000000)" fill="#FFFFFF">
            <path d="M139.480469,1487.96484 L130.730469,1476.00195 L112.205078,1476.00195 L112.205078,1471.62695 L132.986328,1471.62695 L142.214844,1484.20508 L139.480469,1487.96484 Z M174.822266,1476.00195 L161.013672,1476.00195 L132.986328,1515.37695 L112.205078,1515.37695 L112.205078,1511.00195 L130.730469,1511.00195 L158.757812,1471.62695 L174.548828,1471.62695 L169.353516,1466.91016 C169.034504,1466.63672 168.840821,1466.28353 168.772461,1465.85059 C168.704101,1465.41764 168.829425,1465.04167 169.148438,1464.72266 L169.558594,1464.17578 C169.877606,1463.85677 170.264972,1463.69727 170.720703,1463.69727 C171.176435,1463.69727 171.5638,1463.85677 171.882812,1464.17578 L180.701172,1472.24219 L181.316406,1472.85742 C181.498699,1472.99414 181.624023,1473.16504 181.692383,1473.37012 C181.760743,1473.5752 181.794922,1473.76888 181.794922,1473.95117 C181.794922,1474.17904 181.760743,1474.38411 181.692383,1474.56641 C181.624023,1474.7487 181.498699,1474.9082 181.316406,1475.04492 L180.769531,1475.5918 C180.769531,1475.63737 180.758138,1475.66016 180.735352,1475.66016 L180.701172,1475.66016 L172.019531,1483.52148 C171.700519,1483.8405 171.313153,1484 170.857422,1484 C170.40169,1484 170.014325,1483.8405 169.695312,1483.52148 L169.285156,1482.97461 C168.966144,1482.70117 168.84082,1482.34798 168.90918,1481.91504 C168.977539,1481.48209 169.171222,1481.10612 169.490234,1480.78711 L174.822266,1476.00195 Z M180.769531,1511.68555 L181.316406,1512.23242 C181.498699,1512.36914 181.624023,1512.54004 181.692383,1512.74512 C181.760743,1512.9502 181.794922,1513.14388 181.794922,1513.32617 C181.794922,1513.55404 181.760743,1513.75911 181.692383,1513.94141 C181.624023,1514.1237 181.498699,1514.2832 181.316406,1514.41992 L180.769531,1514.9668 C180.769531,1515.01237 180.758138,1515.03516 180.735352,1515.03516 L180.701172,1515.03516 L172.019531,1522.89648 C171.700519,1523.2155 171.313153,1523.375 170.857422,1523.375 C170.40169,1523.375 170.014325,1523.2155 169.695312,1522.89648 L169.285156,1522.34961 C168.966144,1522.07617 168.84082,1521.72298 168.90918,1521.29004 C168.977539,1520.85709 169.171222,1520.48112 169.490234,1520.16211 L174.753906,1515.44531 L158.757812,1515.37695 L150.486328,1502.73047 L153.152344,1498.90234 L161.013672,1511.00195 L174.617188,1511.07031 L169.353516,1506.28516 C169.034504,1506.01172 168.840821,1505.65853 168.772461,1505.22559 C168.704101,1504.79264 168.829425,1504.41667 169.148438,1504.09766 L169.558594,1503.55078 C169.877606,1503.23177 170.264972,1503.07227 170.720703,1503.07227 C171.176435,1503.07227 171.5638,1503.23177 171.882812,1503.55078 L180.701172,1511.61719 C180.701172,1511.66276 180.712565,1511.68555 180.735352,1511.68555 L180.769531,1511.68555 Z" id="Shuffle---simple-line-icons"></path>
        </g>
    </g>
</svg>