<?xml version="1.0" encoding="UTF-8" standalone="no"?>
<svg width="24px" height="31px" viewBox="0 0 24 31" version="1.1" xmlns="http://www.w3.org/2000/svg" xmlns:xlink="http://www.w3.org/1999/xlink">
    <!-- Generator: Sketch 47.1 (45422) - http://www.bohemiancoding.com/sketch -->
    <title>Location-pin - simple-line-icons</title>
    <desc>Created with Sketch.</desc>
    <defs></defs>
    <g id="Page-1" stroke="none" stroke-width="1" fill="none" fill-rule="evenodd">
        <g id="Artboard" transform="translate(-310.000000, -2994.000000)" fill="#FFFFFF">
            <path d="M322.117188,2994.875 C323.875009,2994.875 325.447259,2995.17773 326.833984,2995.7832 C328.22071,2996.38867 329.387691,2997.21386 330.334961,2998.25879 C331.282231,2999.30372 332.00488,3000.51952 332.50293,3001.90625 C333.000979,3003.29298 333.25,3004.7578 333.25,3006.30078 C333.25,3007.86329 332.942386,3009.45995 332.327148,3011.09082 C331.711911,3012.72169 330.935552,3014.32323 329.998047,3015.89551 C329.060542,3017.46778 328.044927,3018.95702 326.951172,3020.36328 C325.857416,3021.76954 324.832036,3023.01953 323.875,3024.11328 C323.875,3024.13281 323.728517,3024.26465 323.435547,3024.50879 C323.142577,3024.75293 322.800783,3024.875 322.410156,3024.875 L322.322266,3024.875 C321.912107,3024.875 321.565431,3024.75293 321.282227,3024.50879 C320.999022,3024.26465 320.857422,3024.13281 320.857422,3024.11328 C319.841792,3022.9414 318.74317,3021.66212 317.561523,3020.27539 C316.379877,3018.88866 315.286138,3017.42872 314.280273,3015.89551 C313.274409,3014.3623 312.434574,3012.78516 311.760742,3011.16406 C311.086911,3009.54296 310.75,3007.92188 310.75,3006.30078 C310.75,3004.7578 311.052731,3003.29298 311.658203,3001.90625 C312.263675,3000.51952 313.083979,2999.30372 314.119141,2998.25879 C315.154302,2997.21386 316.360345,2996.38867 317.737305,2995.7832 C319.114265,2995.17773 320.574211,2994.875 322.117188,2994.875 Z M322.46875,3022.85352 C323.953132,3021.15429 325.251948,3019.53321 326.365234,3017.99023 C327.478521,3016.44726 328.406246,3014.98731 329.148438,3013.61035 C329.890629,3012.23339 330.447264,3010.93458 330.818359,3009.71387 C331.189455,3008.49316 331.375,3007.35547 331.375,3006.30078 C331.375,3005.10937 331.194338,3003.94239 330.833008,3002.7998 C330.471678,3001.65722 329.91016,3000.63672 329.148438,2999.73828 C328.386715,2998.83984 327.42481,2998.11719 326.262695,2997.57031 C325.10058,2997.02343 323.718758,2996.75 322.117188,2996.75 C320.828119,2996.75 319.607428,2997.0039 318.455078,2997.51172 C317.302729,2998.01953 316.296879,2998.708 315.4375,2999.57715 C314.578121,3000.44629 313.894534,3001.46191 313.386719,3002.62402 C312.878904,3003.78614 312.625,3005.01171 312.625,3006.30078 C312.625,3007.68751 312.917966,3009.09374 313.503906,3010.51953 C314.089847,3011.94532 314.832027,3013.34667 315.730469,3014.72363 C316.628911,3016.10059 317.615229,3017.4287 318.689453,3018.70801 C319.763677,3019.98731 320.779292,3021.18359 321.736328,3022.29688 L322.234375,3022.85352 L322.351562,3022.9707 C322.371094,3022.95117 322.395508,3022.93164 322.424805,3022.91211 C322.454102,3022.89258 322.46875,3022.87305 322.46875,3022.85352 Z M322.029297,3000.5293 C323.591805,3000.5293 324.919916,3001.08105 326.013672,3002.18457 C327.107427,3003.28809 327.654297,3004.61132 327.654297,3006.1543 C327.654297,3007.7168 327.107427,3009.04492 326.013672,3010.13867 C324.919916,3011.23243 323.591805,3011.7793 322.029297,3011.7793 C320.48632,3011.7793 319.163091,3011.23243 318.05957,3010.13867 C316.956049,3009.04492 316.404297,3007.7168 316.404297,3006.1543 C316.404297,3004.61132 316.956049,3003.28809 318.05957,3002.18457 C319.163091,3001.08105 320.48632,3000.5293 322.029297,3000.5293 Z M322.029297,3009.9043 C323.064458,3009.9043 323.943356,3009.53321 324.666016,3008.79102 C325.388675,3008.04882 325.75,3007.16016 325.75,3006.125 C325.75,3005.08984 325.383793,3004.20606 324.651367,3003.47363 C323.918942,3002.74121 323.035161,3002.375 322,3002.375 C320.964839,3002.375 320.081058,3002.74121 319.348633,3003.47363 C318.616207,3004.20606 318.25,3005.08984 318.25,3006.125 C318.25,3007.16016 318.62109,3008.04882 319.363281,3008.79102 C320.105472,3009.53321 320.994135,3009.9043 322.029297,3009.9043 Z" id="Location-pin---simple-line-icons"></path>
        </g>
    </g>
</svg>