<?xml version="1.0" encoding="UTF-8" standalone="no"?>
<svg width="30px" height="30px" viewBox="0 0 30 30" version="1.1" xmlns="http://www.w3.org/2000/svg" xmlns:xlink="http://www.w3.org/1999/xlink">
    <!-- Generator: Sketch 47.1 (45422) - http://www.bohemiancoding.com/sketch -->
    <title>phone - simple-line-icons</title>
    <desc>Created with Sketch.</desc>
    <defs></defs>
    <g id="Page-1" stroke="none" stroke-width="1" fill="none" fill-rule="evenodd">
        <g id="Artboard" transform="translate(-399.000000, -2935.000000)" fill="#FFFFFF">
            <path d="M406.675781,2935.95898 C407.222659,2936.72071 407.823239,2937.58984 408.477539,2938.56641 C409.131839,2939.54297 409.83984,2940.62695 410.601562,2941.81836 C410.796876,2942.13086 410.879883,2942.48242 410.850586,2942.87305 C410.821289,2943.26367 410.679689,2943.68359 410.425781,2944.13281 C410.328125,2944.32813 410.162111,2944.64062 409.927734,2945.07031 C409.693358,2945.5 409.390627,2946.05664 409.019531,2946.74023 C409.42969,2947.32617 409.952145,2947.98047 410.586914,2948.70312 C411.221683,2949.42578 411.95898,2950.20703 412.798828,2951.04688 C413.658207,2951.90625 414.444332,2952.65332 415.157227,2953.28809 C415.870121,2953.92285 416.509763,2954.44531 417.076172,2954.85547 C417.740238,2954.46484 418.29199,2954.14746 418.731445,2953.90332 C419.170901,2953.65918 419.48828,2953.48828 419.683594,2953.39062 C419.91797,2953.25391 420.157225,2953.15137 420.401367,2953.08301 C420.645509,2953.01465 420.874999,2952.98047 421.089844,2952.98047 C421.265626,2952.98047 421.426757,2953 421.573242,2953.03906 C421.719727,2953.07813 421.861327,2953.13672 421.998047,2953.21484 C422.876958,2953.74219 423.804683,2954.333 424.78125,2954.9873 C425.757817,2955.6416 426.802729,2956.35937 427.916016,2957.14062 C428.111329,2957.27734 428.267578,2957.45312 428.384766,2957.66797 C428.501954,2957.88281 428.580078,2958.11719 428.619141,2958.37109 C428.638672,2958.64453 428.609375,2958.92285 428.53125,2959.20605 C428.453125,2959.48926 428.316407,2959.77734 428.121094,2960.07031 C428.042968,2960.20703 427.925782,2960.37305 427.769531,2960.56836 C427.61328,2960.76367 427.427735,2960.98828 427.212891,2961.24219 C427.017577,2961.4961 426.763673,2961.78418 426.451172,2962.10645 C426.13867,2962.42871 425.76758,2962.78515 425.337891,2963.17578 C424.927732,2963.56641 424.55176,2963.85937 424.209961,2964.05469 C423.868162,2964.25 423.570314,2964.34766 423.316406,2964.34766 L423.257812,2964.34766 C422.242182,2964.30859 421.17774,2964.08887 420.064453,2963.68848 C418.951166,2963.28808 417.779303,2962.7168 416.548828,2961.97461 C415.318353,2961.23242 414.029304,2960.30469 412.681641,2959.19141 C411.333978,2958.07812 409.927742,2956.79884 408.462891,2955.35352 C406.99804,2953.88866 405.713873,2952.48243 404.610352,2951.13477 C403.50683,2949.7871 402.579105,2948.49805 401.827148,2947.26758 C401.075192,2946.0371 400.503908,2944.86036 400.113281,2943.7373 C399.722654,2942.61425 399.507813,2941.55469 399.46875,2940.55859 C399.46875,2940.28515 399.566405,2939.97754 399.761719,2939.63574 C399.957032,2939.29394 400.249998,2938.90821 400.640625,2938.47852 C401.031252,2938.04883 401.382811,2937.68262 401.695312,2937.37988 C402.007814,2937.07715 402.291014,2936.82813 402.544922,2936.63281 C402.779298,2936.45703 403.003905,2936.29102 403.21875,2936.13477 C403.433595,2935.97851 403.61914,2935.8418 403.775391,2935.72461 C403.990235,2935.56836 404.214843,2935.45606 404.449219,2935.3877 C404.683595,2935.31934 404.937499,2935.28516 405.210938,2935.28516 C405.523439,2935.28516 405.801757,2935.33887 406.045898,2935.44629 C406.29004,2935.55371 406.499999,2935.72461 406.675781,2935.95898 Z M404.800781,2937.16016 C404.410154,2937.4336 404.029299,2937.73144 403.658203,2938.05371 C403.287108,2938.37598 402.925783,2938.71289 402.574219,2939.06445 C402.222654,2939.41602 401.944337,2939.71875 401.739258,2939.97266 C401.534179,2940.22656 401.402344,2940.44141 401.34375,2940.61719 C401.382813,2941.4961 401.587889,2942.43359 401.958984,2943.42969 C402.33008,2944.42579 402.867184,2945.48535 403.570312,2946.6084 C404.273441,2947.73145 405.142573,2948.91308 406.177734,2950.15332 C407.212896,2951.39356 408.414056,2952.69726 409.78125,2954.06445 C411.148444,2955.43165 412.452142,2956.63281 413.692383,2957.66797 C414.932623,2958.70313 416.114252,2959.57226 417.237305,2960.27539 C418.360357,2960.97852 419.4248,2961.51562 420.430664,2961.88672 C421.436528,2962.25781 422.378902,2962.47266 423.257812,2962.53125 C423.394532,2962.47266 423.589842,2962.33594 423.84375,2962.12109 C424.097658,2961.90625 424.400389,2961.62305 424.751953,2961.27148 C425.103517,2960.91992 425.435545,2960.55371 425.748047,2960.17285 C426.060548,2959.79199 426.36328,2959.40625 426.65625,2959.01562 C426.714844,2958.9375 426.753906,2958.86426 426.773438,2958.7959 C426.792969,2958.72754 426.792969,2958.66406 426.773438,2958.60547 C425.640619,2957.80468 424.600591,2957.0918 423.65332,2956.4668 C422.70605,2955.84179 421.851566,2955.28516 421.089844,2954.79688 C421.011718,2954.79688 420.923829,2954.81152 420.826172,2954.84082 C420.728515,2954.87012 420.621094,2954.91406 420.503906,2954.97266 C420.347655,2955.07031 420.05469,2955.23633 419.625,2955.4707 C419.19531,2955.70508 418.638675,2956.00781 417.955078,2956.37891 L416.988281,2956.96484 L416.021484,2956.32031 C415.396481,2955.89062 414.708012,2955.33887 413.956055,2954.66504 C413.204098,2953.99121 412.378911,2953.20508 411.480469,2952.30664 C410.601558,2951.4082 409.830081,2950.58301 409.166016,2949.83105 C408.50195,2949.0791 407.95508,2948.39063 407.525391,2947.76562 L406.822266,2946.85742 L407.408203,2945.83203 C407.779299,2945.14843 408.08203,2944.59668 408.316406,2944.17676 C408.550782,2943.75683 408.716796,2943.45899 408.814453,2943.2832 C408.873047,2943.16602 408.916992,2943.05859 408.946289,2942.96094 C408.975586,2942.86328 408.990234,2942.77539 408.990234,2942.69727 C408.306637,2941.62304 407.65723,2940.61719 407.041992,2939.67969 C406.426755,2938.74218 405.83594,2937.86329 405.269531,2937.04297 L405.210938,2937.04297 C405.132812,2937.04297 405.059571,2937.05273 404.991211,2937.07227 C404.922851,2937.0918 404.859375,2937.12109 404.800781,2937.16016 Z" id="phone---simple-line-icons"></path>
        </g>
    </g>
</svg>